<svg width="0" height="0" style="position:absolute" xmlns="http://www.w3.org/2000/svg" xmlns:xlink="http://www.w3.org/1999/xlink">
  <style>
    .origin-center { transform-origin: center; transform-box: fill-box; }
  </style>
  <symbol id="symbol-ortho-icon-base" viewBox="0 0 1024 1024" style="fill:none;stroke-width:10;stroke:currentColor">
    <!-- <g style="fill:none;stroke-width:10;stroke:currentColor"> -->
    <path id="ortho-outer-00_0deg" d="M 212,212 H 812 V 812 H 212 Z" />
    <path id="ortho-outer-45_0deg" d="M 512,87.735931 936.26407,512 512,936.26407 87.735931,512 Z" />
    <path id="ortho-outer-22_5deg" d="M 349.64117,120.03111 903.96889,349.64117 674.35883,903.96889 120.03111,674.35883 Z" />
    <path id="ortho-outer-67_5deg" d="M 674.35883,120.03111 903.96889,674.35883 349.64117,903.96889 120.03111,349.64117 Z" />
    <path id="ortho-inner-00_0deg" d="M 302,302 H 722 V 722 H 302 Z" />
    <path id="ortho-inner-45_0deg" d="M 512,215.01515 808.98485,512 512,808.98485 215.01515,512 Z" />
    <path id="ortho-inner-22_5deg" d="M 398.34882,237.62178 786.37822,398.34882 625.65118,786.37822 237.62178,625.65118 Z" />
    <path id="ortho-inner-67_5deg" d="M 625.65118,237.62178 786.37822,625.65118 398.34882,786.37822 237.62178,398.34882 Z" />
    <!-- </g> -->
  </symbol>
  <symbol id="symbol-ortho-icon-invert" viewBox="0 0 1024 1024">
    <g style="fill:currentColor">
      <path d="M 512,842.12891 573.5625,867.63086 512,929.19336 450.4375,867.63086 Z" />
      <path d="M 638.33594,817 H 704.9707 L 671.65234,897.4375 591.2168,864.11914 Z" />
      <path d="m 572.66797,817 h 51.52539 l -42.97656,42.97656 -56.15235,-23.25781 z" />
      <path d="m 477.46094,817 h 69.07812 L 512,831.30664 Z" />
      <path d="m 399.80664,817 h 51.52539 l 47.60352,19.71875 -56.15235,23.25781 z" />
      <path d="m 319.0293,817 h 66.63476 l 47.11914,47.11914 -80.43554,33.31836 z" />
      <path d="M 660.62695,780.56641 634.19336,807 h -37.38281 z" />
      <path d="M 363.37305,780.56641 427.18945,807 h -37.38281 z" />
      <path d="M 562.44727,765.60938 616.52734,788.00977 570.68164,807 h -49.625 z" />
      <path d="M 461.55273,765.60938 502.94336,807 h -49.625 l -45.8457,-18.99023 z" />
      <path d="M 732.37109,750.84766 709.11328,807 h -60.77734 l 36.43359,-36.43359 z" />
      <path d="M 291.62891,750.84766 339.23047,770.56641 375.66406,807 h -60.77734 z" />
      <path d="M 512,744.71289 552.44727,761.4668 512,801.91406 471.55273,761.4668 Z" />
      <path d="m 655.6582,727 h 58.53516 l -35.08984,35.08984 -45.84571,18.99024 z" />
      <path d="m 601.05664,727 h 43.77734 l -21.88867,52.8457 -52.8457,-21.88867 z" />
      <path d="m 554.76367,727 h 32.15039 l -26.81445,26.81445 -35.03516,-14.51172 z" />
      <path d="m 495.36523,727 h 33.26954 L 512,733.89062 Z" />
      <path d="m 437.08594,727 h 32.15039 l 29.69922,12.30273 -35.03516,14.51172 z" />
      <path d="m 379.16602,727 h 43.77734 l 30.95703,30.95703 -52.8457,21.88867 z" />
      <path d="m 309.80664,727 h 58.53516 l 22.40039,54.08008 -45.84571,-18.99024 z" />
      <path d="M 807,719.93555 V 807 h -87.06445 l 25.50195,-61.5625 z" />
      <path d="M 217,719.93555 278.5625,745.4375 304.06445,807 H 217 Z" />
      <path d="M 609.64648,704.26758 596.91406,717 h -18.00781 z" />
      <path d="M 414.35352,704.26758 445.09375,717 h -18.00781 z" />
      <path d="M 752.08984,703.24609 737.7832,737.7832 703.24609,752.08984 Z" />
      <path d="M 271.91016,703.24609 320.75391,752.08984 286.2168,737.7832 Z" />
      <path d="M 663.48828,681.96484 648.97656,717 h -37.91992 l 22.73242,-22.73242 z" />
      <path d="M 360.51172,681.96484 390.21094,694.26758 412.94336,717 h -37.91992 z" />
      <path d="M 717,659.80078 V 717 h -57.19922 l 16.75195,-40.44727 z" />
      <path d="M 307,659.80078 347.44727,676.55273 364.19922,717 H 307 Z" />
      <path d="m 675.79102,652.26562 -6.89063,16.63477 -16.63477,6.89063 z" />
      <path d="m 348.20898,652.26562 23.5254,23.5254 -16.63477,-6.89063 z" />
      <path d="m 807,648.33594 v 60.77734 l -56.15234,23.25781 19.71875,-47.60156 z" />
      <path d="m 217,648.33594 36.43359,36.43359 19.71875,47.60156 L 217,709.11328 Z" />
      <path d="M 781.08008,633.25781 762.08984,679.10352 727,714.19336 V 655.6582 Z" />
      <path d="M 242.91992,633.25781 297,655.6582 v 58.53516 l -35.08984,-35.08984 z" />
      <path d="m 717,611.05664 v 37.91992 l -35.03516,14.51172 12.30274,-29.69922 z" />
      <path d="m 307,611.05664 22.73242,22.73242 12.30274,29.69922 L 307,648.97656 Z" />
      <path d="m 807,596.81055 v 37.38281 l -26.43359,26.43359 z" />
      <path d="m 217,596.81055 26.43359,63.8164 L 217,634.19336 Z" />
      <path d="M 864.11914,591.2168 897.4375,671.65234 817,704.9707 v -66.63476 z" />
      <path d="M 159.88086,591.2168 207,638.33594 v 66.63476 l -80.4375,-33.31836 z" />
      <path d="m 717,578.90625 v 18.00781 l -12.73242,12.73242 z" />
      <path d="M 307,578.90625 319.73242,609.64648 307,596.91406 Z" />
      <path d="M 757.95703,570.09961 779.8457,622.94531 727,644.83398 v -43.77734 z" />
      <path d="M 266.04297,570.09961 297,601.05664 v 43.77734 l -52.8457,-21.88867 z" />
      <path d="M 836.71875,525.06445 859.97656,581.2168 817,624.19336 v -51.52539 z" />
      <path d="M 739.30273,525.06445 753.81445,560.09961 727,586.91406 v -32.15039 z" />
      <path d="M 284.69727,525.06445 297,554.76367 v 32.15039 l -26.81445,-26.81445 z" />
      <path d="M 187.28125,525.06445 207,572.66797 v 51.52539 L 164.02344,581.2168 Z" />
      <path d="m 807,521.05664 v 49.625 l -18.99023,45.8457 -22.40039,-54.08007 z" />
      <path d="m 217,521.05664 41.39062,41.39063 -22.40039,54.08007 L 217,570.68164 Z" />
      <path d="M 727,495.36523 733.89062,512 727,528.63477 Z" />
      <path d="m 297,495.36523 v 33.26954 L 290.10938,512 Z" />
      <path d="M 817,477.46094 831.30664,512 817,546.53906 Z" />
      <path d="m 207,477.46094 v 69.07812 L 192.69336,512 Z" />
      <path d="M 761.4668,471.55273 801.91406,512 761.4668,552.44727 744.71289,512 Z" />
      <path d="M 262.5332,471.55273 279.28711,512 262.5332,552.44727 222.08594,512 Z" />
      <path d="M 867.63086,450.4375 929.19336,512 867.63086,573.5625 842.12891,512 Z" />
      <path d="m 156.36914,450.4375 25.5,61.5625 -25.5,61.5625 L 94.806641,512 Z" />
      <path d="m 727,437.08594 26.81445,26.81445 -14.51172,35.03516 L 727,469.23633 Z" />
      <path d="m 297,437.08594 v 32.14844 l -12.30273,29.70117 -14.51172,-35.03516 z" />
      <path d="M 704.26758,414.35352 717,427.08594 v 18.00781 z" />
      <path d="M 319.73242,414.35352 307,445.0918 v -18.00586 z" />
      <path d="M 788.00977,407.47266 807,453.31836 v 49.625 l -41.39062,-41.39063 z" />
      <path d="M 235.99023,407.47266 258.39062,461.55273 217,502.94336 v -49.625 z" />
      <path d="M 817,399.80664 859.97656,442.7832 836.71875,498.93555 817,451.33203 Z" />
      <path d="m 207,399.80664 v 51.52344 l -19.71875,47.60547 -23.25781,-56.15235 z" />
      <path d="m 727,379.16602 52.8457,21.88867 -21.88867,52.8457 L 727,422.94336 Z" />
      <path d="m 297,379.16602 v 43.77734 l -30.95703,30.95703 -21.88867,-52.8457 z" />
      <path d="M 780.56641,363.37305 807,389.80664 v 37.38281 z" />
      <path d="M 243.43359,363.37305 217,427.18945 v -37.38281 z" />
      <path d="M 681.96484,360.51172 717,375.02344 v 37.91992 l -22.73242,-22.73242 z" />
      <path d="M 342.0332,360.51172 329.73242,390.21289 307,412.94336 v -37.91992 z" />
      <path d="m 652.26562,348.20898 16.63477,6.89063 6.89063,16.63477 z" />
      <path d="m 371.73633,348.20898 -23.52735,23.52735 6.89063,-16.63672 z" />
      <path d="M 817,319.0293 897.4375,352.34766 864.11914,432.7832 817,385.66406 Z" />
      <path d="m 207,319.0293 v 66.63476 L 159.88086,432.7832 126.5625,352.34766 Z" />
      <path d="m 727,309.80664 35.08984,35.08984 18.99024,45.84571 L 727,368.3418 Z" />
      <path d="m 297,309.80664 v 58.53516 l -54.08008,22.40039 18.99024,-45.84571 z" />
      <path d="M 659.80078,307 H 717 v 57.19922 l -40.44727,-16.75195 z" />
      <path d="m 611.05664,307 h 37.91992 l 14.51172,35.03516 -29.69922,-12.30274 z" />
      <path d="m 578.90625,307 h 18.00781 l 12.73242,12.73242 z" />
      <path d="m 427.08594,307 h 18.00586 l -30.73828,12.73242 z" />
      <path d="m 375.02344,307 h 37.92187 l -22.73242,22.73047 -29.70117,12.30469 z" />
      <path d="m 307,307 h 57.19922 L 347.44531,347.44531 307,364.19922 Z" />
      <path d="M 750.84766,291.62891 807,314.88672 v 60.77734 l -36.43359,-36.43359 z" />
      <path d="M 273.15039,291.62891 253.43359,339.23242 217,375.66406 v -60.77734 z" />
      <path d="M 512,290.10938 528.63477,297 h -33.26954 z" />
      <path d="m 703.24609,271.91016 34.53711,14.30664 14.30664,34.53711 z" />
      <path d="m 320.75586,271.91016 -48.8457,48.8457 14.30664,-34.53906 z" />
      <path d="M 560.09961,270.18555 586.91406,297 h -32.15039 l -29.69922,-12.30273 z" />
      <path d="m 463.90039,270.18555 35.0332,14.51172 L 469.23438,297 h -32.14844 z" />
      <path d="M 622.94531,244.1543 644.83398,297 h -43.77734 l -30.95703,-30.95703 z" />
      <path d="m 401.05469,244.1543 52.8457,21.89062 L 422.94531,297 h -43.77929 z" />
      <path d="M 633.25781,242.91992 679.10352,261.91016 714.19336,297 H 655.6582 Z" />
      <path d="M 390.74219,242.91992 368.3418,297 h -58.53516 l 35.08984,-35.08984 z" />
      <path d="m 512,222.08594 40.44531,40.44531 -40.44726,16.75391 -40.44532,-16.75196 z" />
      <path d="M 719.93555,217 H 807 v 87.06445 L 745.4375,278.5625 Z" />
      <path d="m 648.33594,217 h 60.77734 l 23.25781,56.15234 -47.60156,-19.71875 z" />
      <path d="m 596.81055,217 h 37.38281 l 26.43359,26.43359 z" />
      <path d="m 521.05664,217 h 49.625 l 45.84375,18.99023 -54.07812,22.40039 z" />
      <path d="m 453.31836,217 h 49.62695 l -41.39062,41.39062 -54.08203,-22.40039 z" />
      <path d="m 389.80664,217 h 37.38281 l -63.8164,26.43359 z" />
      <path d="m 314.88672,217 h 60.7793 l -36.4336,36.43359 -47.60351,19.71875 z" />
      <path d="m 217,217 h 87.0625 l -25.5,61.56445 -61.5625,25.5 z" />
      <path d="M 512,192.69336 546.53906,207 h -69.07812 z" />
      <path d="M 581.2168,164.02344 624.19336,207 h -51.52539 l -47.60352,-19.71875 z" />
      <path d="M 442.7832,164.02344 498.93555,187.28125 451.33203,207 h -51.52539 z" />
      <path d="M 671.65234,126.5625 704.9707,207 H 638.33594 L 591.2168,159.88086 Z" />
      <path d="m 352.34766,126.5625 80.4375,33.31836 L 385.66602,207 H 319.0293 Z" />
      <path d="M 512,94.806641 573.56445,156.37109 512,181.87109 450.4375,156.36914 Z" />
    </g>
  </symbol>
  <symbol id="symbol-ortho-animated" viewBox="0 0 1024 1024">
    <use xlink:href="#symbol-ortho-icon-base">
      <!--
      <animate
        attributeName="opacity"
        values="1;0;1"
        begin="0s"
        dur="5s"
        repeatCount="indefinite" />
      -->
      <animate
        attributeName="stroke-width"
        values="10;30;20;10;10;10"
        begin="0s"
        dur="5s"
        repeatCount="indefinite" />
    </use>
    <use xlink:href="#symbol-ortho-icon-invert" class="origin-center">
      <animate
        attributeName="opacity"
        values="0;.5;.1;0;0;0"
        begin="0"
        dur="5s"
        repeatCount="indefinite" />
      <animateTransform
        attributeName="transform"
        type="scale"
        additive="sum"
        values="1.0 1.0; 1.2 1.2"
        calcMode="spline"
        keySplines="0 .5 .5 1"
        keyTimes="0; 1"
        begin="0s"
        dur="5s"
        repeatCount="indefinite"
      />
    </use>
  </symbol>
</svg>