<svg xmlns="http://www.w3.org/2000/svg" viewBox="0 0 220 27">
  <g fill="white">
    <path d="M10.3766 4.36579C14.3067 4.36579 17.2074 5.25657 19.079 7.03813C20.9505 8.81969 21.8863 11.5399 21.8863 15.1987C21.8863 18.9492 20.9907 21.7444 19.1996 23.5845C17.4085 25.4246 14.6936 26.3409 11.055 26.3333L3.73517 26.261H0V25.0524L2.80731 24.6144V5.98345L0 5.55993V4.35443L10.3766 4.36579ZM16.4727 15.3237C16.4727 12.1655 15.8964 9.84958 14.7438 8.37585C13.5912 6.90212 11.7196 6.16526 9.12917 6.16526H7.92913V24.4057C8.97143 24.4946 9.91476 24.5349 10.7643 24.5349C11.9498 24.6007 13.1247 24.2808 14.1139 23.6227C15.0109 22.89 15.6432 21.8826 15.9139 20.7552C16.3452 18.9781 16.5339 17.1506 16.4748 15.3227L16.4727 15.3237Z" />
    <path d="M22.6904 25.072L25.4977 24.6505V5.98345L22.6904 5.55786V4.35443H41.3024V9.93256H39.8188L39.2982 6.39664C37.546 6.22213 35.7854 6.14695 34.0248 6.17145H30.635V14.2081H36.3579L36.8589 11.7961H38.3311V18.5105H36.8796L36.3785 16.0313H30.635V24.4698H34.7589C36.5996 24.5251 38.4419 24.438 40.2694 24.2095L41.1972 20.1591H42.6746L42.3653 26.263H22.6904V25.072Z" />
    <path d="M51.1656 25.0731V26.2765H44.5241V25.0731L46.152 24.6516L53.9244 4.20673H58.6534L66.4052 24.6516L68.0692 25.0896V26.2951H58.3297V25.0896L60.8556 24.6516L58.7864 18.9702H50.3635L48.3583 24.6516L51.1656 25.0731ZM54.6347 7.48956L51.0264 17.1738H58.1318L54.6347 7.48956Z" />
    <path d="M81.1789 5.55993L77.8056 5.98345V24.5349H82.2542C83.9609 24.5783 85.668 24.4694 87.3554 24.2095L88.6957 19.6519H90.1638L89.5452 26.263H69.8652V25.0524L72.6725 24.6144V5.98345L69.8889 5.55786V4.35443H81.1831L81.1789 5.55993Z" />
    <path d="M129.652 25.0731V26.2765H123.003V25.0731L124.631 24.6516L132.403 4.20673H137.131L144.872 24.6516L146.536 25.0896V26.2951H136.806V25.0896L139.333 24.6516L137.244 18.9857H128.854L126.848 24.6516L129.652 25.0731ZM133.122 7.48956L129.513 17.1738H136.62L133.122 7.48956Z" />
    <path d="M171.121 4.36579V5.57026L168.446 5.99585L161.229 12.3807L170.854 24.6444L172.891 25.0823V26.2878H165.751L157.573 15.7152L155.684 17.3463V24.6475L158.829 25.0854V26.2909H147.748V25.0937L150.555 24.6557V5.98345L147.748 5.55786V4.35443H158.504V5.55993L155.697 5.98345V14.9002L165.655 5.98345L163.65 5.55786V4.35443L171.121 4.36579Z" />
    <path d="M174.113 25.072L176.92 24.634V5.98345L174.113 5.55786V4.35443H192.733V9.93256H191.249L190.723 6.38838C188.965 6.21386 187.2 6.13868 185.434 6.16319H182.045V14.1998H187.764L188.269 11.7878H189.722V18.5022H188.269L187.764 16.023H182.045V24.4615H186.169C188.008 24.5171 189.849 24.4301 191.675 24.2012L192.603 20.1509H194.087L193.777 26.2548H174.113V25.072Z" />
    <path d="M204.13 16.992V24.6506L206.937 25.0885V26.294H196.39V25.0937L198.981 24.6557V5.98345L196.173 5.55786V4.35443H206.62C209.829 4.35443 212.235 4.84992 213.837 5.8409C214.62 6.32002 215.257 7.00637 215.676 7.82448C216.096 8.64258 216.282 9.56074 216.214 10.478C216.325 11.8462 215.94 13.2085 215.13 14.3154C214.319 15.4223 213.138 16.1998 211.803 16.5055L217.638 24.6506L220 25.072V26.2775H212.93L206.833 17.0034L204.13 16.992ZM211.124 10.5265C211.19 9.91959 211.134 9.30564 210.961 8.72042C210.788 8.13519 210.5 7.59038 210.114 7.11767C209.445 6.47825 208.206 6.16526 206.413 6.16526H204.131V15.1946H206.493C207.773 15.3206 209.052 14.946 210.063 14.1492C210.877 13.1273 211.259 11.8256 211.125 10.5245L211.124 10.5265Z" />
    <path d="M96.1774 7.76638L99.4218 15.2287L102.129 9.4863L99.927 4.36682H91.337V5.55992L94.1402 5.98551V24.6351L91.337 25.073V26.2661H99.1126V25.0741L96.1774 24.6361V7.76638Z" />
    <path d="M121.311 5.55992V4.36682H116.856L113.375 12.2909V24.6351L110.44 25.073V26.2661H121.311V25.0741L118.508 24.6361V5.98654L121.311 5.55992Z" />
    <path fill="#2E9990" d="M111.253 12.4892L112.666 9.35514L113.375 7.76434V7.77983L116.515 0.666687H114.149L105.414 17.0344L103.152 11.8064L100.445 17.5509L104.247 26.2703H105.141L111.269 12.5037L111.253 12.4892Z" />
  </g>
</svg>